<svg width="48" height="48" viewBox="0 0 48 48" fill="none" xmlns="http://www.w3.org/2000/svg">
<g clip-path="url(#clip0_44_246)">
<path d="M35.2 36.875L30.2958 31.9709C29.6236 32.3986 28.8215 32.8035 27.8896 33.1854C26.9576 33.5674 26.0944 33.85 25.3 34.0334V30.6417C25.6667 30.4889 26.1021 30.3132 26.6062 30.1146C27.1104 29.916 27.5306 29.725 27.8667 29.5417L22 23.675V32.2459L13.2 23.4459H6.6V14.6459H12.925L4.125 5.80002L6.4625 3.46252L37.5375 34.5375L35.2 36.875ZM34.925 27.2959L32.5417 24.9125C33.0306 24.0264 33.4125 23.0868 33.6875 22.0938C33.9625 21.1007 34.1 20.0847 34.1 19.0459C34.1 16.3264 33.2826 13.9049 31.6479 11.7813C30.0132 9.65766 27.8972 8.19864 25.3 7.40419V4.01252C28.875 4.7153 31.7854 6.48752 34.0312 9.32919C36.2771 12.1709 37.4 15.4097 37.4 19.0459C37.4 20.5125 37.1861 21.941 36.7583 23.3313C36.3306 24.7216 35.7194 26.0431 34.925 27.2959ZM29.2417 21.6125L25.3 17.6709V12.0792C26.675 12.6903 27.7521 13.6299 28.5312 14.8979C29.3104 16.166 29.7 17.5486 29.7 19.0459C29.7 19.4736 29.6694 19.9014 29.6083 20.3292C29.5472 20.757 29.425 21.1847 29.2417 21.6125ZM22 14.3709L17.7375 10.1084L22 5.84586V14.3709ZM18.7 24.2709V20.375L15.4 17.075L14.575 17.9459H9.9V20.1459H14.575L18.7 24.2709Z" fill="#B3B3B3"/>
</g>
<defs>
<clipPath id="clip0_44_246">
<rect width="48" height="48" fill="white"/>
</clipPath>
</defs>
</svg>
