<svg width="48" height="48" viewBox="0 0 48 48" fill="none" xmlns="http://www.w3.org/2000/svg">
<path d="M17.3685 32.288L15.7045 27.097H13.3425V34.5585H15.141V32.8165L14.966 29.2435L16.775 34.5585H17.9645L19.7685 29.249L19.593 32.8165V34.5585H21.397V27.097H19.0295L17.3685 32.288Z" fill="#B3B3B3"/>
<path d="M22.662 27.097H24.455V34.5585H22.662V27.097Z" fill="#B3B3B3"/>
<path d="M29.886 27.5475C29.36 27.248 28.7695 27.097 28.109 27.097H25.7065V34.5585H28.1605C28.805 34.556 29.39 34.3995 29.916 34.0945C30.439 33.787 30.8465 33.3635 31.135 32.8245C31.4235 32.2825 31.569 31.6705 31.569 30.9855V30.643C31.5635 29.966 31.4155 29.3565 31.1185 28.812C30.8245 28.2675 30.412 27.844 29.886 27.5475ZM29.732 30.9855C29.732 31.711 29.5945 32.2555 29.3165 32.625C29.0415 32.9915 28.645 33.175 28.13 33.175H27.505V28.4855H28.109C28.6375 28.4855 29.042 28.669 29.317 29.0355C29.5945 29.3995 29.7325 29.944 29.7325 30.664L29.732 30.9855Z" fill="#B3B3B3"/>
<path d="M32.6119 27.097H34.4049V34.5585H32.6119V27.097Z" fill="#B3B3B3"/>
<path d="M29.0405 2.302C28.857 2.108 28.6035 2 28.337 2H11.2285C8.412 2 6.12 4.2895 6.12 7.1075V40.893C6.1195 43.7105 8.412 46 11.2285 46H36.772C39.5885 46 41.8805 43.7105 41.8805 40.8925V16.327C41.8805 16.0815 41.786 15.8445 41.6175 15.6635L29.0405 2.302ZM36.7715 44.0695H11.2285C9.477 44.0695 8.0535 42.643 8.0535 40.893V7.1075C8.0535 5.3575 9.4775 3.931 11.2285 3.931H27.37V13.566C27.37 15.621 29.042 17.2925 31.098 17.2925H39.947V40.893C39.947 42.643 38.523 44.0695 36.7715 44.0695Z" fill="#B3B3B3"/>
</svg>
