<svg width="1024" height="1024" viewBox="0 0 1024 1024" fill="none" xmlns="http://www.w3.org/2000/svg">
<g filter="url(#filter0_n_155_23)">
<rect width="1024" height="1024" rx="131" fill="url(#paint0_linear_155_23)"/>
<rect x="3" y="3" width="1018" height="1018" rx="128" stroke="white" stroke-width="6"/>
<g filter="url(#filter1_d_155_23)">
<g filter="url(#filter2_i_155_23)">
<path d="M218.441 706.457C215.285 708.26 211.555 705.259 212.64 701.79L376.668 177.194C377.722 173.821 382.313 173.373 384 176.478L505.087 399.409C506.602 402.197 510.603 402.197 512.117 399.409L633.204 176.478C634.891 173.373 639.482 173.821 640.537 177.194L804.565 701.79C805.649 705.259 801.919 708.26 798.763 706.457L621 604.935C619.006 603.796 616.466 604.565 615.439 606.618L512.18 813.021C510.705 815.968 506.499 815.968 505.025 813.021L401.766 606.618C400.739 604.565 398.198 603.796 396.205 604.935L218.441 706.457Z" fill="#FFFBF7" fill-opacity="0.62"/>
</g>
<path d="M218.441 706.457C215.285 708.26 211.555 705.259 212.64 701.79L376.668 177.194C377.722 173.821 382.313 173.373 384 176.478L505.087 399.409C506.602 402.197 510.603 402.197 512.117 399.409L633.204 176.478C634.891 173.373 639.482 173.821 640.537 177.194L804.565 701.79C805.649 705.259 801.919 708.26 798.763 706.457L621 604.935C619.006 603.796 616.466 604.565 615.439 606.618L512.18 813.021C510.705 815.968 506.499 815.968 505.025 813.021L401.766 606.618C400.739 604.565 398.198 603.796 396.205 604.935L218.441 706.457Z" stroke="#020202" stroke-width="48" stroke-linecap="round" stroke-linejoin="round"/>
<g clip-path="url(#clip0_155_23)" filter="url(#filter3_g_155_23)">
<path d="M553.866 469.965V518.524C553.866 524.268 549.205 528.929 543.461 528.929C537.717 528.929 533.055 524.268 533.055 518.524V469.965C533.055 464.221 537.717 459.559 543.461 459.559C549.205 459.559 553.866 464.221 553.866 469.965ZM508.776 411C503.032 411 498.37 415.662 498.37 421.406V567.083C498.37 572.827 503.032 577.488 508.776 577.488C514.519 577.488 519.181 572.827 519.181 567.083V421.406C519.181 415.662 514.519 411 508.776 411ZM578.146 438.748C572.402 438.748 567.74 443.41 567.74 449.154V539.335C567.74 545.079 572.402 549.74 578.146 549.74C583.89 549.74 588.551 545.079 588.551 539.335V449.154C588.551 443.41 583.89 438.748 578.146 438.748ZM474.091 445.685C468.347 445.685 463.685 450.347 463.685 456.091V532.398C463.685 538.142 468.347 542.803 474.091 542.803C479.834 542.803 484.496 538.142 484.496 532.398V456.091C484.496 450.347 479.834 445.685 474.091 445.685ZM439.406 473.433C433.662 473.433 429 478.095 429 483.839V504.65C429 510.394 433.662 515.055 439.406 515.055C445.149 515.055 449.811 510.394 449.811 504.65V483.839C449.811 478.095 445.149 473.433 439.406 473.433Z" fill="black"/>
</g>
</g>
</g>
<defs>
<filter id="filter0_n_155_23" x="0" y="0" width="1024" height="1024" filterUnits="userSpaceOnUse" color-interpolation-filters="sRGB">
<feFlood flood-opacity="0" result="BackgroundImageFix"/>
<feBlend mode="normal" in="SourceGraphic" in2="BackgroundImageFix" result="shape"/>
<feTurbulence type="fractalNoise" baseFrequency="3.3333332538604736 3.3333332538604736" stitchTiles="stitch" numOctaves="3" result="noise" seed="1623" />
<feColorMatrix in="noise" type="luminanceToAlpha" result="alphaNoise" />
<feComponentTransfer in="alphaNoise" result="coloredNoise1">
<feFuncA type="discrete" tableValues="1 1 1 1 1 1 1 1 1 1 1 1 1 1 1 1 1 1 1 1 1 1 1 1 1 1 1 1 1 1 1 1 1 1 1 1 1 1 1 1 1 1 1 1 1 1 1 1 1 1 1 0 0 0 0 0 0 0 0 0 0 0 0 0 0 0 0 0 0 0 0 0 0 0 0 0 0 0 0 0 0 0 0 0 0 0 0 0 0 0 0 0 0 0 0 0 0 0 0 0 "/>
</feComponentTransfer>
<feComposite operator="in" in2="shape" in="coloredNoise1" result="noise1Clipped" />
<feFlood flood-color="rgba(0, 0, 0, 0.25)" result="color1Flood" />
<feComposite operator="in" in2="noise1Clipped" in="color1Flood" result="color1" />
<feMerge result="effect1_noise_155_23">
<feMergeNode in="shape" />
<feMergeNode in="color1" />
</feMerge>
</filter>
<filter id="filter1_d_155_23" x="188.391" y="146.883" width="655.922" height="701.848" filterUnits="userSpaceOnUse" color-interpolation-filters="sRGB">
<feFlood flood-opacity="0" result="BackgroundImageFix"/>
<feColorMatrix in="SourceAlpha" type="matrix" values="0 0 0 0 0 0 0 0 0 0 0 0 0 0 0 0 0 0 127 0" result="hardAlpha"/>
<feOffset dx="9" dy="3"/>
<feGaussianBlur stdDeviation="3.25"/>
<feComposite in2="hardAlpha" operator="out"/>
<feColorMatrix type="matrix" values="0 0 0 0 0.996078 0 0 0 0 0.996078 0 0 0 0 0.996078 0 0 0 1 0"/>
<feBlend mode="normal" in2="BackgroundImageFix" result="effect1_dropShadow_155_23"/>
<feBlend mode="normal" in="SourceGraphic" in2="effect1_dropShadow_155_23" result="shape"/>
</filter>
<filter id="filter2_i_155_23" x="188.391" y="150.383" width="640.422" height="691.148" filterUnits="userSpaceOnUse" color-interpolation-filters="sRGB">
<feFlood flood-opacity="0" result="BackgroundImageFix"/>
<feBlend mode="normal" in="SourceGraphic" in2="BackgroundImageFix" result="shape"/>
<feColorMatrix in="SourceAlpha" type="matrix" values="0 0 0 0 0 0 0 0 0 0 0 0 0 0 0 0 0 0 127 0" result="hardAlpha"/>
<feOffset dy="4"/>
<feGaussianBlur stdDeviation="1.15"/>
<feComposite in2="hardAlpha" operator="arithmetic" k2="-1" k3="1"/>
<feColorMatrix type="matrix" values="0 0 0 0 0 0 0 0 0 0 0 0 0 0 0 0 0 0 0.25 0"/>
<feBlend mode="soft-light" in2="shape" result="effect1_innerShadow_155_23"/>
</filter>
<filter id="filter3_g_155_23" x="423.5" y="405.5" width="177.488" height="177.489" filterUnits="userSpaceOnUse" color-interpolation-filters="sRGB">
<feFlood flood-opacity="0" result="BackgroundImageFix"/>
<feBlend mode="normal" in="SourceGraphic" in2="BackgroundImageFix" result="shape"/>
<feTurbulence type="fractalNoise" baseFrequency="inf inf" numOctaves="3" seed="3698" />
<feDisplacementMap in="shape" scale="11" xChannelSelector="R" yChannelSelector="G" result="displacedImage" width="100%" height="100%" />
<feMerge result="effect1_texture_155_23">
<feMergeNode in="displacedImage"/>
</feMerge>
</filter>
<linearGradient id="paint0_linear_155_23" x1="512.034" y1="-4.78934e-10" x2="511.966" y2="1024" gradientUnits="userSpaceOnUse">
<stop stop-color="#4D6E93"/>
<stop offset="1" stop-color="#18222D"/>
</linearGradient>
<clipPath id="clip0_155_23">
<rect width="166.488" height="166.488" fill="white" transform="translate(429 411)"/>
</clipPath>
</defs>
</svg>
