<svg width="762" height="818" viewBox="0 0 762 818" fill="none" xmlns="http://www.w3.org/2000/svg">
<g filter="url(#filter0_d_153_8)">
<g filter="url(#filter1_i_153_8)">
<path d="M30.0512 656.233C26.8953 658.036 23.1646 655.036 24.2487 651.567L218.391 30.3113C219.446 26.9371 224.038 26.4892 225.724 29.596L369.697 294.808C371.211 297.597 375.214 297.597 376.728 294.808L520.7 29.596C522.386 26.4892 526.979 26.9371 528.033 30.3113L722.176 651.567C723.26 655.036 719.529 658.036 716.373 656.233L504.883 535.382C502.89 534.243 500.348 535.012 499.321 537.066L376.79 782.129C375.316 785.077 371.109 785.077 369.634 782.129L247.103 537.066C246.076 535.012 243.535 534.243 241.541 535.382L30.0512 656.233Z" fill="#4D6E93"/>
</g>
<path d="M30.0512 656.233C26.8953 658.036 23.1646 655.036 24.2487 651.567L218.391 30.3113C219.446 26.9371 224.038 26.4892 225.724 29.596L369.697 294.808C371.211 297.597 375.214 297.597 376.728 294.808L520.7 29.596C522.386 26.4892 526.979 26.9371 528.033 30.3113L722.176 651.567C723.26 655.036 719.529 658.036 716.373 656.233L504.883 535.382C502.89 534.243 500.348 535.012 499.321 537.066L376.79 782.129C375.316 785.077 371.109 785.077 369.634 782.129L247.103 537.066C246.076 535.012 243.535 534.243 241.541 535.382L30.0512 656.233Z" stroke="#020202" stroke-width="48" stroke-linecap="round" stroke-linejoin="round"/>
<g filter="url(#filter2_g_153_8)">
<path d="M422.212 409.701V466.867C422.212 473.629 416.724 479.117 409.962 479.117C403.2 479.117 397.712 473.629 397.712 466.867V409.701C397.712 402.939 403.2 397.451 409.962 397.451C416.724 397.451 422.212 402.939 422.212 409.701ZM369.129 340.284C362.367 340.284 356.879 345.772 356.879 352.534V524.034C356.879 530.796 362.367 536.284 369.129 536.284C375.891 536.284 381.379 530.796 381.379 524.034V352.534C381.379 345.772 375.891 340.284 369.129 340.284ZM450.795 372.951C444.033 372.951 438.545 378.439 438.545 385.201V491.367C438.545 498.129 444.033 503.617 450.795 503.617C457.557 503.617 463.045 498.129 463.045 491.367V385.201C463.045 378.439 457.557 372.951 450.795 372.951ZM328.295 381.117C321.533 381.117 316.045 386.605 316.045 393.367V483.201C316.045 489.963 321.533 495.451 328.295 495.451C335.057 495.451 340.545 489.963 340.545 483.201V393.367C340.545 386.605 335.057 381.117 328.295 381.117ZM287.462 413.784C280.7 413.784 275.212 419.272 275.212 426.034V450.534C275.212 457.296 280.7 462.784 287.462 462.784C294.224 462.784 299.712 457.296 299.712 450.534V426.034C299.712 419.272 294.224 413.784 287.462 413.784Z" fill="black"/>
</g>
</g>
<defs>
<filter id="filter0_d_153_8" x="0" y="0" width="761.925" height="817.84" filterUnits="userSpaceOnUse" color-interpolation-filters="sRGB">
<feFlood flood-opacity="0" result="BackgroundImageFix"/>
<feColorMatrix in="SourceAlpha" type="matrix" values="0 0 0 0 0 0 0 0 0 0 0 0 0 0 0 0 0 0 127 0" result="hardAlpha"/>
<feOffset dx="9" dy="3"/>
<feGaussianBlur stdDeviation="3.25"/>
<feComposite in2="hardAlpha" operator="out"/>
<feColorMatrix type="matrix" values="0 0 0 0 0.996078 0 0 0 0 0.996078 0 0 0 0 0.996078 0 0 0 1 0"/>
<feBlend mode="normal" in2="BackgroundImageFix" result="effect1_dropShadow_153_8"/>
<feBlend mode="normal" in="SourceGraphic" in2="effect1_dropShadow_153_8" result="shape"/>
</filter>
<filter id="filter1_i_153_8" x="0" y="3.5" width="746.425" height="807.14" filterUnits="userSpaceOnUse" color-interpolation-filters="sRGB">
<feFlood flood-opacity="0" result="BackgroundImageFix"/>
<feBlend mode="normal" in="SourceGraphic" in2="BackgroundImageFix" result="shape"/>
<feColorMatrix in="SourceAlpha" type="matrix" values="0 0 0 0 0 0 0 0 0 0 0 0 0 0 0 0 0 0 127 0" result="hardAlpha"/>
<feOffset dy="4"/>
<feGaussianBlur stdDeviation="1.15"/>
<feComposite in2="hardAlpha" operator="arithmetic" k2="-1" k3="1"/>
<feColorMatrix type="matrix" values="0 0 0 0 0 0 0 0 0 0 0 0 0 0 0 0 0 0 0.25 0"/>
<feBlend mode="soft-light" in2="shape" result="effect1_innerShadow_153_8"/>
</filter>
<filter id="filter2_g_153_8" x="269.712" y="334.784" width="207" height="207" filterUnits="userSpaceOnUse" color-interpolation-filters="sRGB">
<feFlood flood-opacity="0" result="BackgroundImageFix"/>
<feBlend mode="normal" in="SourceGraphic" in2="BackgroundImageFix" result="shape"/>
<feTurbulence type="fractalNoise" baseFrequency="inf inf" numOctaves="3" seed="3698" />
<feDisplacementMap in="shape" scale="11" xChannelSelector="R" yChannelSelector="G" result="displacedImage" width="100%" height="100%" />
<feMerge result="effect1_texture_153_8">
<feMergeNode in="displacedImage"/>
</feMerge>
</filter>
</defs>
</svg>
