<svg width="48" height="48" viewBox="0 0 48 48" fill="none" xmlns="http://www.w3.org/2000/svg">
<g clip-path="url(#clip0_168_22)">
<path d="M24 25.5744C23.6993 25.5739 23.4013 25.5169 23.1216 25.4064L1.65121 16.8864C1.14959 16.6741 0.723659 16.3155 0.429076 15.8574C0.134493 15.3992 -0.0150424 14.8629 9.8749e-06 14.3184C-0.0151173 13.7751 0.133901 13.24 0.427609 12.7827C0.721317 12.3254 1.14607 11.9674 1.64641 11.7552L23.1264 3.2304C23.6895 3.00963 24.3153 3.00963 24.8784 3.2304L46.3488 11.7552C46.85 11.9666 47.2758 12.3244 47.5704 12.7817C47.865 13.239 48.0147 13.7746 48 14.3184C48.0151 14.8629 47.8655 15.3992 47.5709 15.8574C47.2764 16.3155 46.8504 16.6741 46.3488 16.8864L24.8736 25.4064C24.5954 25.5164 24.2991 25.5733 24 25.5744ZM3.71521 14.3232L24 22.368L44.28 14.3184L24 6.2736L3.71521 14.3232Z" fill="#B3B3B3"/>
<path d="M24 44.9376C23.6988 44.9374 23.4004 44.8787 23.1216 44.7648L1.65118 36.2448C1.16 36.0196 0.743778 35.6581 0.451979 35.2033C0.16018 34.7485 0.00506592 34.2195 0.00506592 33.6792C0.00506592 33.1388 0.16018 32.6098 0.451979 32.1551C0.743778 31.7003 1.16 31.3388 1.65118 31.1136C1.97908 30.9763 2.34379 30.954 2.68597 31.0503C3.02815 31.1467 3.32765 31.356 3.53574 31.6442C3.74384 31.9324 3.84826 32.2826 3.83204 32.6377C3.81581 32.9928 3.67989 33.332 3.44638 33.6L24 41.7264L44.28 33.6816L35.7696 30.3216C35.3768 30.1676 35.0614 29.8638 34.8926 29.4772C34.7238 29.0906 34.7155 28.6527 34.8696 28.26C35.0236 27.8673 35.3274 27.5518 35.714 27.383C36.1006 27.2142 36.5385 27.206 36.9312 27.36L46.3488 31.0944C46.8416 31.3181 47.2596 31.6791 47.5527 32.134C47.8458 32.589 48.0017 33.1188 48.0017 33.66C48.0017 34.2012 47.8458 34.731 47.5527 35.186C47.2596 35.6409 46.8416 36.0019 46.3488 36.2256L24.8736 44.7696C24.5954 44.8795 24.2991 44.9365 24 44.9376Z" fill="#B3B3B3"/>
<path d="M24 35.256C23.6988 35.2558 23.4004 35.1971 23.1216 35.0832L1.65118 26.568C1.16 26.3428 0.743778 25.9813 0.451979 25.5265C0.16018 25.0717 0.00506592 24.5428 0.00506592 24.0024C0.00506592 23.462 0.16018 22.933 0.451979 22.4783C0.743778 22.0235 1.16 21.662 1.65118 21.4368L11.0736 17.6976C11.4638 17.5442 11.8989 17.5521 12.2833 17.7195C12.4736 17.8024 12.6457 17.922 12.7899 18.0714C12.934 18.2208 13.0472 18.3972 13.1232 18.5904C13.1991 18.7836 13.2363 18.9899 13.2325 19.1974C13.2288 19.405 13.1842 19.6098 13.1013 19.8001C13.0184 19.9904 12.8988 20.1626 12.7494 20.3067C12.5999 20.4508 12.4236 20.564 12.2304 20.64L3.71518 24L24 32.0448L44.5536 23.8848C44.3306 23.6159 44.2037 23.2803 44.193 22.9311C44.1823 22.5819 44.2883 22.2392 44.4944 21.9571C44.7004 21.675 44.9947 21.4697 45.3306 21.3737C45.6665 21.2778 46.0248 21.2966 46.3488 21.4272C46.8419 21.65 47.2602 22.0104 47.5537 22.465C47.8471 22.9197 48.0032 23.4493 48.0032 23.9904C48.0032 24.5315 47.8471 25.0611 47.5537 25.5158C47.2602 25.9704 46.8419 26.3308 46.3488 26.5536L24.8736 35.088C24.5954 35.1979 24.2991 35.2549 24 35.256Z" fill="#B3B3B3"/>
</g>
<defs>
<clipPath id="clip0_168_22">
<rect width="48" height="48" fill="white"/>
</clipPath>
</defs>
</svg>
